<svg viewBox="0 0 270 170" fill="none" xmlns="http://www.w3.org/2000/svg">
<g clip-path="url(#clip0_1584_1458)">
<path d="M75.25 90.4295C75.25 89.0835 76.3411 87.9924 77.687 87.9924H193.229C194.575 87.9924 195.666 89.0835 195.666 90.4295V107.447C195.666 108.793 194.575 109.884 193.229 109.884H77.687C76.3411 109.884 75.25 108.793 75.25 107.447V90.4295Z" fill="#F4F7FF" stroke="#1ebcaa" stroke-width="0.5"/>
<rect x="98" y="98" width="40" height="2" rx="1" fill="#1ebcaa"/>
<rect x="141" y="98" width="12" height="2" rx="1" fill="#1ebcaa"/>
<rect x="84.0089" y="94.96" width="7.95677" height="7.95677" rx="3.97838" fill="#1ebcaa" stroke="#1ebcaa"/>
<g clip-path="url(#clip1_1584_1458)">
<path fill-rule="evenodd" clip-rule="evenodd" d="M89.9372 97.4362C90.0246 97.5236 90.0246 97.6654 89.9372 97.7529L87.4741 100.216C87.3866 100.303 87.2449 100.303 87.1574 100.216L86.0378 99.0964C85.9504 99.0089 85.9504 98.8672 86.0378 98.7797C86.1253 98.6923 86.267 98.6923 86.3545 98.7797L87.3157 99.741L89.6205 97.4362C89.708 97.3487 89.8497 97.3487 89.9372 97.4362Z" fill="white"/>
</g>
<path d="M75.25 63.5562C75.25 62.2102 76.3411 61.1191 77.687 61.1191H193.229C194.575 61.1191 195.666 62.2102 195.666 63.5562V80.574C195.666 81.92 194.575 83.0111 193.229 83.0111H77.687C76.3411 83.0111 75.25 81.92 75.25 80.574V63.5562Z" fill="#F4F7FF" stroke="#D6DDEE" stroke-width="0.5"/>
<rect x="98" y="71" width="40" height="2" rx="1" fill="#C7CCD5"/>
<rect x="141" y="71" width="12" height="2" rx="1" fill="#C7CCD5"/>
<rect x="83.5089" y="67.5864" width="8.95677" height="8.95677" rx="4.47838" fill="#B2B3B4"/>
<g clip-path="url(#clip2_1584_1458)">
<path fill-rule="evenodd" clip-rule="evenodd" d="M89.9372 70.5649C90.0246 70.6523 90.0246 70.7941 89.9372 70.8815L87.4741 73.3446C87.3866 73.4321 87.2449 73.4321 87.1574 73.3446L86.0378 72.225C85.9504 72.1376 85.9504 71.9958 86.0378 71.9084C86.1253 71.8209 86.267 71.8209 86.3545 71.9084L87.3157 72.8696L89.6205 70.5649C89.708 70.4774 89.8497 70.4774 89.9372 70.5649Z" fill="white"/>
</g>
<path d="M75.25 36.687C75.25 35.3411 76.3411 34.25 77.687 34.25H193.229C194.575 34.25 195.666 35.3411 195.666 36.687V53.7049C195.666 55.0508 194.575 56.1419 193.229 56.1419H77.687C76.3411 56.1419 75.25 55.0508 75.25 53.7049V36.687Z" fill="#F4F7FF" stroke="#D6DDEE" stroke-width="0.5"/>
<rect x="98" y="44" width="40" height="2" rx="1" fill="#C7CCD5"/>
<rect x="141" y="44" width="12" height="2" rx="1" fill="#C7CCD5"/>
<rect x="83.5089" y="40.7197" width="8.95677" height="8.95677" rx="4.47838" fill="#B2B3B4"/>
<g clip-path="url(#clip3_1584_1458)">
<path fill-rule="evenodd" clip-rule="evenodd" d="M89.9372 43.6969C90.0246 43.7844 90.0246 43.9262 89.9372 44.0136L87.4741 46.4767C87.3866 46.5642 87.2449 46.5642 87.1574 46.4767L86.0378 45.3571C85.9504 45.2697 85.9504 45.1279 86.0378 45.0404C86.1253 44.953 86.267 44.953 86.3545 45.0404L87.3157 46.0017L89.6205 43.6969C89.708 43.6095 89.8497 43.6095 89.9372 43.6969Z" fill="white"/>
</g>
<path d="M75.25 117.295C75.25 115.949 76.3411 114.858 77.687 114.858H193.229C194.575 114.858 195.666 115.949 195.666 117.295V134.313C195.666 135.659 194.575 136.75 193.229 136.75H77.687C76.3411 136.75 75.25 135.659 75.25 134.313V117.295Z" fill="#F4F7FF" stroke="#D6DDEE" stroke-width="0.5"/>
<rect x="98" y="125" width="40" height="2" rx="1" fill="#C7CCD5"/>
<rect x="141" y="125" width="12" height="2" rx="1" fill="#C7CCD5"/>
<rect x="83.5089" y="121.328" width="8.95677" height="8.95677" rx="4.47838" fill="#B2B3B4"/>
<g clip-path="url(#clip4_1584_1458)">
<path fill-rule="evenodd" clip-rule="evenodd" d="M89.9371 124.304C90.0246 124.391 90.0246 124.533 89.9371 124.62L87.474 127.083C87.3866 127.171 87.2448 127.171 87.1573 127.083L86.0378 125.964C85.9503 125.876 85.9503 125.735 86.0378 125.647C86.1252 125.56 86.267 125.56 86.3544 125.647L87.3157 126.608L89.6205 124.304C89.7079 124.216 89.8497 124.216 89.9371 124.304Z" fill="white"/>
</g>
</g>
<defs>
<clipPath id="clip0_1584_1458">
<rect width="270" height="170" fill="white"/>
</clipPath>
<clipPath id="clip1_1584_1458">
<rect width="5.37406" height="5.37406" fill="white" transform="translate(85.3005 96.251)"/>
</clipPath>
<clipPath id="clip2_1584_1458">
<rect width="5.37406" height="5.37406" fill="white" transform="translate(85.3005 69.3796)"/>
</clipPath>
<clipPath id="clip3_1584_1458">
<rect width="5.37406" height="5.37406" fill="white" transform="translate(85.3005 42.5117)"/>
</clipPath>
<clipPath id="clip4_1584_1458">
<rect width="5.37406" height="5.37406" fill="white" transform="translate(85.3004 123.118)"/>
</clipPath>
</defs>
</svg>
