<svg viewBox="0 0 270 170" fill="none" xmlns="http://www.w3.org/2000/svg">
<g clip-path="url(#clip0_1580_823)">
<rect x="79.25" y="20.25" width="110.5" height="128.5" rx="1.75" fill="#F0F3F9" stroke="#F0F3F9" stroke-width="0.5"/>
<g filter="url(#filter0_d_1580_823)">
<rect x="109" y="33" width="52" height="18" rx="2" fill="white"/>
<path d="M162.605 46.395L161 48H160.5V44L162.564 45.651C162.796 45.8372 162.816 46.1843 162.605 46.395Z" fill="white"/>
<rect x="114" y="42" width="14" height="1.2" rx="0.6" fill="#CCD5E9"/>
<rect x="135" y="46" width="7" height="1.2" rx="0.6" fill="#CCD5E9"/>
<rect x="122" y="38" width="11" height="1.2" rx="0.6" fill="#CCD5E9"/>
<rect x="131" y="42" width="27" height="1.2" rx="0.6" fill="#CCD5E9"/>
<rect x="144" y="46" width="14" height="1.2" rx="0.6" fill="#CCD5E9"/>
<rect x="136" y="38" width="22" height="1.2" rx="0.6" fill="#CCD5E9"/>
<path d="M179.333 44.6667C179.333 48.3486 176.349 51.3333 172.667 51.3333C168.985 51.3333 166 48.3486 166 44.6667C166 40.9848 168.985 38 172.667 38C176.349 38 179.333 40.9848 179.333 44.6667Z" fill="white"/>
<path fill-rule="evenodd" clip-rule="evenodd" d="M172.667 51.0476C176.191 51.0476 179.048 48.1908 179.048 44.6667C179.048 41.1426 176.191 38.2857 172.667 38.2857C169.143 38.2857 166.286 41.1426 166.286 44.6667C166.286 48.1908 169.143 51.0476 172.667 51.0476ZM172.667 51.3333C176.349 51.3333 179.333 48.3486 179.333 44.6667C179.333 40.9848 176.349 38 172.667 38C168.985 38 166 40.9848 166 44.6667C166 48.3486 168.985 51.3333 172.667 51.3333Z" fill="#E7E7E7"/>
<g clip-path="url(#clip1_1580_823)">
<path fill-rule="evenodd" clip-rule="evenodd" d="M172.667 42.6465C172.248 42.6465 171.909 42.9857 171.909 43.4041C171.909 43.8225 172.248 44.1617 172.667 44.1617C173.085 44.1617 173.424 43.8225 173.424 43.4041C173.424 42.9857 173.085 42.6465 172.667 42.6465ZM171.404 43.4041C171.404 42.7068 171.969 42.1415 172.667 42.1415C173.364 42.1415 173.929 42.7068 173.929 43.4041C173.929 44.1014 173.364 44.6667 172.667 44.6667C171.969 44.6667 171.404 44.1014 171.404 43.4041ZM170.764 45.5416C171.001 45.3048 171.322 45.1718 171.657 45.1718H173.677C174.012 45.1718 174.333 45.3048 174.57 45.5416C174.806 45.7784 174.939 46.0995 174.939 46.4344V46.9395C174.939 47.0789 174.826 47.192 174.687 47.192C174.547 47.192 174.434 47.0789 174.434 46.9395V46.4344C174.434 46.2335 174.355 46.0408 174.212 45.8987C174.07 45.7566 173.878 45.6768 173.677 45.6768H171.657C171.456 45.6768 171.263 45.7566 171.121 45.8987C170.979 46.0408 170.899 46.2335 170.899 46.4344V46.9395C170.899 47.0789 170.786 47.192 170.646 47.192C170.507 47.192 170.394 47.0789 170.394 46.9395V46.4344C170.394 46.0995 170.527 45.7784 170.764 45.5416Z" fill="#667179"/>
</g>
<rect x="109" y="89.6666" width="52" height="18" rx="2" fill="white"/>
<path d="M162.605 103.062L161 104.667H160.5V100.667L162.564 102.318C162.796 102.504 162.816 102.851 162.605 103.062Z" fill="white"/>
<rect x="114" y="98.6666" width="14" height="1.2" rx="0.6" fill="#CCD5E9"/>
<rect x="135" y="102.667" width="7" height="1.2" rx="0.6" fill="#CCD5E9"/>
<rect x="122" y="94.6666" width="11" height="1.2" rx="0.6" fill="#CCD5E9"/>
<rect x="131" y="98.6666" width="27" height="1.2" rx="0.6" fill="#CCD5E9"/>
<rect x="144" y="102.667" width="14" height="1.2" rx="0.6" fill="#CCD5E9"/>
<rect x="136" y="94.6666" width="22" height="1.2" rx="0.6" fill="#CCD5E9"/>
<path d="M179.333 101.333C179.333 105.015 176.349 108 172.667 108C168.985 108 166 105.015 166 101.333C166 97.6514 168.985 94.6666 172.667 94.6666C176.349 94.6666 179.333 97.6514 179.333 101.333Z" fill="white"/>
<path fill-rule="evenodd" clip-rule="evenodd" d="M172.667 107.714C176.191 107.714 179.048 104.857 179.048 101.333C179.048 97.8092 176.191 94.9523 172.667 94.9523C169.143 94.9523 166.286 97.8092 166.286 101.333C166.286 104.857 169.143 107.714 172.667 107.714ZM172.667 108C176.349 108 179.333 105.015 179.333 101.333C179.333 97.6514 176.349 94.6666 172.667 94.6666C168.985 94.6666 166 97.6514 166 101.333C166 105.015 168.985 108 172.667 108Z" fill="#E7E7E7"/>
<g clip-path="url(#clip2_1580_823)">
<path fill-rule="evenodd" clip-rule="evenodd" d="M172.667 99.3132C172.248 99.3132 171.909 99.6523 171.909 100.071C171.909 100.489 172.248 100.828 172.667 100.828C173.085 100.828 173.424 100.489 173.424 100.071C173.424 99.6523 173.085 99.3132 172.667 99.3132ZM171.404 100.071C171.404 99.3734 171.969 98.8081 172.667 98.8081C173.364 98.8081 173.929 99.3734 173.929 100.071C173.929 100.768 173.364 101.333 172.667 101.333C171.969 101.333 171.404 100.768 171.404 100.071ZM170.764 102.208C171.001 101.971 171.322 101.838 171.657 101.838H173.677C174.012 101.838 174.333 101.971 174.57 102.208C174.806 102.445 174.939 102.766 174.939 103.101V103.606C174.939 103.746 174.826 103.859 174.687 103.859C174.547 103.859 174.434 103.746 174.434 103.606V103.101C174.434 102.9 174.355 102.707 174.212 102.565C174.07 102.423 173.878 102.343 173.677 102.343H171.657C171.456 102.343 171.263 102.423 171.121 102.565C170.979 102.707 170.899 102.9 170.899 103.101V103.606C170.899 103.746 170.786 103.859 170.646 103.859C170.507 103.859 170.394 103.746 170.394 103.606V103.101C170.394 102.766 170.527 102.445 170.764 102.208Z" fill="#667179"/>
</g>
<rect width="52" height="18" rx="2" transform="matrix(-1 0 0 1 159.333 61)" fill="white"/>
<path d="M105.728 74.7283L107.333 76.3333H107.833V72.3333L105.77 73.9843C105.537 74.1705 105.518 74.5176 105.728 74.7283Z" fill="white"/>
<rect width="14" height="1.2" rx="0.6" transform="matrix(-1 0 0 1 154.333 70.2)" fill="#CCD5E9"/>
<rect width="7" height="1.2" rx="0.6" transform="matrix(-1 0 0 1 133.333 73.4)" fill="#CCD5E9"/>
<rect width="11" height="1.2" rx="0.6" transform="matrix(-1 0 0 1 146.333 67)" fill="#CCD5E9"/>
<rect width="27" height="1.2" rx="0.6" transform="matrix(-1 0 0 1 137.333 70.2)" fill="#CCD5E9"/>
<rect width="14" height="1.2" rx="0.6" transform="matrix(-1 0 0 1 124.333 73.4)" fill="#CCD5E9"/>
<rect width="22" height="1.2" rx="0.6" transform="matrix(-1 0 0 1 132.333 67)" fill="#CCD5E9"/>
<path d="M102.333 73C102.333 76.6819 99.3486 79.6666 95.6667 79.6666C91.9848 79.6666 89 76.6819 89 73C89 69.3181 91.9848 66.3333 95.6667 66.3333C99.3486 66.3333 102.333 69.3181 102.333 73Z" fill="white"/>
<path fill-rule="evenodd" clip-rule="evenodd" d="M95.6667 79.3809C99.1908 79.3809 102.048 76.5241 102.048 73C102.048 69.4759 99.1908 66.619 95.6667 66.619C92.1426 66.619 89.2857 69.4759 89.2857 73C89.2857 76.5241 92.1426 79.3809 95.6667 79.3809ZM95.6667 79.6666C99.3486 79.6666 102.333 76.6819 102.333 73C102.333 69.3181 99.3486 66.3333 95.6667 66.3333C91.9848 66.3333 89 69.3181 89 73C89 76.6819 91.9848 79.6666 95.6667 79.6666Z" fill="#E7E7E7"/>
<path d="M102.55 68.775C102.55 69.7553 101.755 70.55 100.775 70.55C99.7947 70.55 99 69.7553 99 68.775C99 67.7947 99.7947 67 100.775 67C101.755 67 102.55 67.7947 102.55 68.775Z" fill="#27AE60"/>
<path fill-rule="evenodd" clip-rule="evenodd" d="M100.775 69.9583C101.429 69.9583 101.958 69.4285 101.958 68.775C101.958 68.1215 101.429 67.5917 100.775 67.5917C100.121 67.5917 99.5917 68.1215 99.5917 68.775C99.5917 69.4285 100.121 69.9583 100.775 69.9583ZM100.775 70.55C101.755 70.55 102.55 69.7553 102.55 68.775C102.55 67.7947 101.755 67 100.775 67C99.7947 67 99 67.7947 99 68.775C99 69.7553 99.7947 70.55 100.775 70.55Z" fill="white"/>
<path fill-rule="evenodd" clip-rule="evenodd" d="M95.6666 70.9798C95.2483 70.9798 94.9091 71.319 94.9091 71.7374C94.9091 72.1558 95.2483 72.495 95.6666 72.495C96.085 72.495 96.4242 72.1558 96.4242 71.7374C96.4242 71.319 96.085 70.9798 95.6666 70.9798ZM94.404 71.7374C94.404 71.0401 94.9693 70.4748 95.6666 70.4748C96.364 70.4748 96.9293 71.0401 96.9293 71.7374C96.9293 72.4347 96.364 73 95.6666 73C94.9693 73 94.404 72.4347 94.404 71.7374ZM93.7637 73.8749C94.0005 73.6381 94.3217 73.5051 94.6565 73.5051H96.6767C97.0116 73.5051 97.3328 73.6381 97.5696 73.8749C97.8064 74.1117 97.9394 74.4329 97.9394 74.7677V75.2728C97.9394 75.4122 97.8263 75.5253 97.6869 75.5253C97.5474 75.5253 97.4343 75.4122 97.4343 75.2728V74.7677C97.4343 74.5668 97.3545 74.3741 97.2124 74.232C97.0704 74.09 96.8777 74.0101 96.6767 74.0101H94.6565C94.4556 74.0101 94.2629 74.09 94.1209 74.232C93.9788 74.3741 93.899 74.5668 93.899 74.7677V75.2728C93.899 75.4122 93.7859 75.5253 93.6464 75.5253C93.507 75.5253 93.3939 75.4122 93.3939 75.2728V74.7677C93.3939 74.4329 93.5269 74.1117 93.7637 73.8749Z" fill="#667179"/>
<rect width="52" height="18" rx="2" transform="matrix(-1 0 0 1 159.333 118)" fill="white"/>
<path d="M105.728 131.395L107.333 133H107.833V129L105.77 130.651C105.537 130.837 105.518 131.184 105.728 131.395Z" fill="white"/>
<rect width="14" height="1.2" rx="0.6" transform="matrix(-1 0 0 1 154.333 127)" fill="#CCD5E9"/>
<rect width="7" height="1.2" rx="0.6" transform="matrix(-1 0 0 1 133.333 131)" fill="#CCD5E9"/>
<rect width="11" height="1.2" rx="0.6" transform="matrix(-1 0 0 1 146.333 123)" fill="#CCD5E9"/>
<rect width="27" height="1.2" rx="0.6" transform="matrix(-1 0 0 1 137.333 127)" fill="#CCD5E9"/>
<rect width="14" height="1.2" rx="0.6" transform="matrix(-1 0 0 1 124.333 131)" fill="#CCD5E9"/>
<rect width="22" height="1.2" rx="0.6" transform="matrix(-1 0 0 1 132.333 123)" fill="#CCD5E9"/>
<path d="M102.333 129.667C102.333 133.349 99.3486 136.333 95.6667 136.333C91.9848 136.333 89 133.349 89 129.667C89 125.985 91.9848 123 95.6667 123C99.3486 123 102.333 125.985 102.333 129.667Z" fill="white"/>
<path fill-rule="evenodd" clip-rule="evenodd" d="M95.6667 136.048C99.1908 136.048 102.048 133.191 102.048 129.667C102.048 126.143 99.1908 123.286 95.6667 123.286C92.1426 123.286 89.2857 126.143 89.2857 129.667C89.2857 133.191 92.1426 136.048 95.6667 136.048ZM95.6667 136.333C99.3486 136.333 102.333 133.349 102.333 129.667C102.333 125.985 99.3486 123 95.6667 123C91.9848 123 89 125.985 89 129.667C89 133.349 91.9848 136.333 95.6667 136.333Z" fill="#E7E7E7"/>
<path d="M102 125.326C102 126.25 101.25 127 100.326 127C99.4008 127 98.6512 126.25 98.6512 125.326C98.6512 124.401 99.4008 123.651 100.326 123.651C101.25 123.651 102 124.401 102 125.326Z" fill="#27AE60"/>
<path fill-rule="evenodd" clip-rule="evenodd" d="M100.326 126.442C100.942 126.442 101.442 125.942 101.442 125.326C101.442 124.709 100.942 124.209 100.326 124.209C99.7091 124.209 99.2093 124.709 99.2093 125.326C99.2093 125.942 99.7091 126.442 100.326 126.442ZM100.326 127C101.25 127 102 126.25 102 125.326C102 124.401 101.25 123.651 100.326 123.651C99.4008 123.651 98.6512 124.401 98.6512 125.326C98.6512 126.25 99.4008 127 100.326 127Z" fill="white"/>
<g clip-path="url(#clip3_1580_823)">
<path fill-rule="evenodd" clip-rule="evenodd" d="M95.6666 127.646C95.2483 127.646 94.9091 127.986 94.9091 128.404C94.9091 128.822 95.2483 129.162 95.6666 129.162C96.085 129.162 96.4242 128.822 96.4242 128.404C96.4242 127.986 96.085 127.646 95.6666 127.646ZM94.404 128.404C94.404 127.707 94.9693 127.141 95.6666 127.141C96.364 127.141 96.9293 127.707 96.9293 128.404C96.9293 129.101 96.364 129.667 95.6666 129.667C94.9693 129.667 94.404 129.101 94.404 128.404ZM93.7637 130.542C94.0005 130.305 94.3217 130.172 94.6565 130.172H96.6767C97.0116 130.172 97.3328 130.305 97.5696 130.542C97.8064 130.778 97.9394 131.099 97.9394 131.434V131.939C97.9394 132.079 97.8263 132.192 97.6869 132.192C97.5474 132.192 97.4343 132.079 97.4343 131.939V131.434C97.4343 131.233 97.3545 131.041 97.2124 130.899C97.0704 130.757 96.8777 130.677 96.6767 130.677H94.6565C94.4556 130.677 94.2629 130.757 94.1209 130.899C93.9788 131.041 93.899 131.233 93.899 131.434V131.939C93.899 132.079 93.7859 132.192 93.6464 132.192C93.507 132.192 93.3939 132.079 93.3939 131.939V131.434C93.3939 131.099 93.5269 130.778 93.7637 130.542Z" fill="#667179"/>
</g>
</g>
</g>
<defs>
<filter id="filter0_d_1580_823" x="88.6" y="32.7" width="91.1333" height="104.133" filterUnits="userSpaceOnUse" color-interpolation-filters="sRGB">
<feFlood flood-opacity="0" result="BackgroundImageFix"/>
<feColorMatrix in="SourceAlpha" type="matrix" values="0 0 0 0 0 0 0 0 0 0 0 0 0 0 0 0 0 0 127 0" result="hardAlpha"/>
<feOffset dy="0.1"/>
<feGaussianBlur stdDeviation="0.2"/>
<feComposite in2="hardAlpha" operator="out"/>
<feColorMatrix type="matrix" values="0 0 0 0 0 0 0 0 0 0 0 0 0 0 0 0 0 0 0.12 0"/>
<feBlend mode="normal" in2="BackgroundImageFix" result="effect1_dropShadow_1580_823"/>
<feBlend mode="normal" in="SourceGraphic" in2="effect1_dropShadow_1580_823" result="shape"/>
</filter>
<clipPath id="clip0_1580_823">
<rect width="270" height="170" fill="white"/>
</clipPath>
<clipPath id="clip1_1580_823">
<rect width="6.06061" height="6.06061" fill="white" transform="translate(169.636 41.6364)"/>
</clipPath>
<clipPath id="clip2_1580_823">
<rect width="6.06061" height="6.06061" fill="white" transform="translate(169.636 98.303)"/>
</clipPath>
<clipPath id="clip3_1580_823">
<rect width="6.06061" height="6.06061" fill="white" transform="translate(92.6364 126.636)"/>
</clipPath>
</defs>
</svg>
