<svg viewBox="0 0 270 170" fill="none" xmlns="http://www.w3.org/2000/svg">
<g clip-path="url(#clip0_1579_973)">

<path d="M69.8591 62.2725L25.5 99V105.5C25.5 107.157 26.8431 108.5 28.5 108.5H243.5C245.157 108.5 246.5 107.157 246.5 105.5V60.5L200.961 85.2494C200.656 85.4152 200.382 85.6327 200.151 85.8922L190.365 96.9014C189.316 98.0822 187.53 98.2467 186.283 97.2775L130.415 53.876C129.089 52.8457 127.175 53.1046 126.171 54.4502L102.111 86.6726C101.005 88.1546 98.8337 88.2921 97.5491 86.9615L73.9306 62.4995C72.8413 61.3714 71.067 61.2725 69.8591 62.2725Z" fill="url(#paint0_linear_1579_973)" fill-opacity="0.64"/>
<path d="M25.5 99L69.8591 62.2725C71.067 61.2725 72.8413 61.3714 73.9306 62.4995L97.5491 86.9615C98.8337 88.2921 101.005 88.1546 102.111 86.6726L126.171 54.4502C127.175 53.1046 129.089 52.8457 130.415 53.876L186.283 97.2775C187.53 98.2467 189.316 98.0822 190.365 96.9014L200.151 85.8922C200.382 85.6327 200.656 85.4152 200.961 85.2494L246.5 60.5" stroke="#1ebcaa" stroke-width="2" stroke-linecap="round"/>
</g>
<defs>
<linearGradient id="paint0_linear_1579_973" x1="136" y1="52" x2="136" y2="108.5" gradientUnits="userSpaceOnUse">
<stop stop-color="#CCD5E9"/>
<stop offset="1" stop-color="#CCD5E9" stop-opacity="0"/>
</linearGradient>
</defs>
</svg>
