<svg viewBox="0 0 270 170" fill="none" xmlns="http://www.w3.org/2000/svg">
<g clip-path="url(#clip0_1578_873)">
<path fill-rule="evenodd" clip-rule="evenodd" d="M85.5942 95.5459L86.6226 94.2139L87.7054 93.5786L88.79 93.6378L88.9289 93.5483L89.4277 92.2986L89.3102 91.3672L89.4948 90.1866L90.0578 90.7772L90.3458 91.2811L91.3551 92.0079L92.0555 92.867L91.5284 93.7089L91.5859 94.6469L91.7067 94.7751L92.6378 94.9028L93.6507 95.429L93.5471 95.746L93.7919 95.9848L93.3395 96.1512L93.2786 96.3709L93.6754 96.88L93.5979 98.2711L93.722 98.4198L94.1055 98.4737L93.8823 98.9565L93.4557 99.2019L93.402 99.3939L93.8618 100.214L94.0217 101.307L94.375 102.222L94.2023 103.45L94.4105 104.269L94.3716 104.692L94.1842 104.491L93.837 104.509L93.4819 103.684L93.3065 103.607L92.619 103.836L92.523 103.98L92.5883 104.861L92.896 106.062L93.301 106.8L93.0446 107.567L93.3323 108.272L93.4919 108.351L94.3145 108.176L94.7682 107.595L95.2539 107.671L95.7907 107.13L95.5384 105.885L96.1371 105.362L96.369 104.886L96.6714 104.923L96.5126 106.145L96.8535 106.708L97.0264 107.73L97.5131 108.416L97.716 108.443L98.5412 107.793L99.5586 107.829L101.501 107.396L102.044 107.624L102.081 108.153L102.223 108.286L102.786 108.282L103.27 107.942L104.413 108.737L104.35 109.257L105.968 111.371L106.695 112.526L107.311 115.357L107.049 116.293L107.201 116.907L106.919 117.031L106.843 117.21L107.077 117.822L107.051 119.104L106.84 120.015L107.615 120.744L107.539 121.022L107.006 120.996L106.792 120.72L106.564 120.725L105.846 121.719L105.808 122.199L105.3 122.877L104.9 123.076L104.521 122.799L104.32 122.833L103.881 123.493L103.426 123.742L103.358 123.894L103.536 124.751L103.065 126.198L103.049 127.244L103.154 127.393L104.03 127.62L103.943 127.811L103.476 127.697L103.292 127.833L103.302 128.477L102.574 129.125L102.039 128.675L101.836 128.693L101.511 129.086L100.709 128.971L100.551 129.08L100.387 129.826L99.6006 129.421L99.1232 128.32L97.7063 127.743L97.2469 128.013L96.6533 128.073L96.5303 128.181L96.4079 128.669L96.0491 129.281L95.7567 128.989L95.0428 129.15L94.9343 129.317L95.0665 129.991L94.5833 130.656L94.7743 131.834L95.1316 132.834L94.9975 133.448L94.6099 133.739L93.9612 134.742L94.0274 135.333L94.3095 135.842L93.9081 135.728L93.7251 135.861L93.7141 136.405L92.7022 138.117L92.0599 138.616L91.6338 139.166L91.0589 139.314L90.761 139.706L89.8363 140.309L89.2955 140.86L89.3213 141.332L87.453 142.71L86.6219 142.58L86.8605 142.221L86.8016 142.015L86.344 141.802L85.7011 141.919L84.9165 141.549L83.469 141.996L82.5228 143.19L81.7756 143.147L81.0357 143.584L80.7551 143.616L79.6959 143.388L79.2788 143.801L79.2298 144.049L78.491 143.937L78.3951 143.689L78.113 143.61L77.9872 142.786L78.0192 142.189L78.4804 141.397L78.463 141.23L78.0142 140.727L78.2992 139.697L78.0282 139.169L77.9763 137.604L77.7276 137.356L77.2306 137.223L77.2 136.658L77.0548 136.524L75.1679 136.56L75.3907 134.929L75.3298 134.383L73.7616 133.036L74.6987 131.512L74.3365 130.791L73.4049 130.378L73.5408 129.673L73.102 128.8L73.1234 128.622L73.8983 128.672L74.7745 128.172L75.6084 127.193L76.5667 126.984L77.5964 127.746L78.2729 127.65L79.5038 125.648L80.5074 124.924L80.8158 124.486L81.8185 124.482L82.649 124.23L83.0757 123.238L83.9712 121.636L84.2783 120.473L84.7299 119.754L85.8023 118.79L86.2171 117.789L86.6975 117.428L86.5501 116.275L86.7323 114.842L87.1888 113.564L87.2147 112.407L86.9196 111.615L86.8124 110.916L86.6732 110.796L85.853 110.888L85.4793 110.35L86.2706 109.133L86.0615 108.116L86.1627 106.722L85.7178 105.798L85.6582 105.152L85.987 103.945L86.3511 103.359L86.3126 103.168L85.8404 102.915L84.8107 103.369L84.1744 103.92L84.2542 104.783L83.7948 105.484L83.7309 105.95L83.4081 105.974L82.0655 104.397L82.8113 103.543L82.5956 102.111L82.0654 101.831L81.2446 100.68L80.9952 100.013L80.3814 99.779L79.9607 100.019L79.7475 99.3468L79.9442 98.2892L80.3385 97.2151L81.1426 96.1482L81.7927 95.6299L84.4364 95.4307L85.6087 95.5478L85.5942 95.5459ZM109.03 121.411L109.141 122.168L108.716 122.62L108.118 122.405L107.93 121.937L108.041 120.998L108.21 120.623L108.427 120.595L108.648 121.057L109.03 121.411Z" fill="#D0D9ED"/>
<path fill-rule="evenodd" clip-rule="evenodd" d="M129.693 125.238L129.799 125.486L134.913 127.24L138.61 127.23L138.822 127.019V126.629H140.825L142.71 128.173L143.448 129.664L144.256 130.212L145.36 130.645L145.61 130.571L146.385 129.517L147.304 129.496L148.149 130.012L149.237 131.778L150.018 132.6L150.687 134.254L151.845 134.792L153.045 135.097L152.419 137.058L152.196 139.714L153.146 142.29L154.007 143.286L154.331 144.087L154.968 144.836L156.322 145.183L157.05 145.763L161.055 144.767L162.042 144.082L162.648 141.816L164.825 141.179L166.722 141.121L166.891 141.279L166.86 141.774L166.19 142.538L165.835 143.439L166.036 143.808L165.654 145.004L165.394 144.846L164.863 144.888L164.332 145.621L164.082 145.563L163.8 145.811L161.538 145.8L161.325 146.011V146.569L160.741 146.706L160.794 146.938L161.761 147.697L162.058 148.177L160.364 148.287L159.721 149.389L159.849 149.768L159.743 150L158.553 148.851L157.783 148.361L156.604 147.997L155.797 148.113L154.166 148.725L148.563 146.696L147.044 145.663L145.036 145.178L144.463 144.551L143.071 143.798L142.445 142.986L142.243 142.559L142.593 142.227L142.498 141.948L142.774 141.547L142.779 141.068L141.717 139.055L140.543 137.669L139.199 136.568L138.567 135.714L137.399 135.097L137.24 134.871L137.42 134.091L137.309 133.854L136.655 133.538L135.933 132.905L135.62 131.967L134.802 131.72L133.506 130.376L133.421 129.902L132.715 128.832L132.268 127.783L132.183 127.082L131.222 126.503L130.707 126.529L130.011 126.16L129.709 126.276L129.496 126.866L129.878 128.853L131.743 130.903L131.891 131.314L132.173 131.451L132.391 132.204L133.097 133.116L133.936 133.859L134.361 135.118L135.121 136.388L135.19 137.084L135.386 137.274L135.938 137.316L136.825 138.517L136.374 138.918L136.023 138.122L135.131 137.311L133.586 136.325L133.617 135.366L133.331 134.481L131.785 133.411L131.493 133.459L130.457 132.879L129.99 132.384L130.351 132.341L130.845 131.809L130.888 130.871L129.863 129.849L129.087 129.443L127.095 125.459L129.687 125.238H129.693Z" fill="#E4EBFA"/>
<path fill-rule="evenodd" clip-rule="evenodd" d="M207.422 95.8135L206.537 97.3445L206.574 97.605L206.839 97.6263L207.613 97.1053L208.142 97.3286L207.846 97.7113L207.936 98.0409L209.112 98.5141L209.827 98.1366L210.86 98.5513L210.51 99.6198L210.775 99.8909L211.474 99.6677L211.993 101.353L211.511 102.634L211.088 102.677L210.436 102.437L210.685 101.241L210.214 100.8L209.959 100.832L208.487 102.23L208.307 102.219L208.847 101.768L208.773 101.401L207.501 100.991L203.581 101.034L203.491 100.816L204.18 100.316L204.191 99.976L203.804 99.6677L204.784 98.7427L206.145 95.9995L206.924 95.0479L207.978 94.4897L208.222 94.5216L207.411 95.8241L207.422 95.8135ZM95.2585 57.835L97.4462 58.34L99.5757 59.4777L100.958 59.6903L102.267 58.6856L103.792 57.9891L105.832 58.2443L107.797 57.213L109.821 56.6601L110.647 57.5532L110.906 57.5957L111.897 57.0429L112.241 55.9903L112.898 56.1763L115.102 58.2709L115.388 58.2762L116.845 56.9525L116.982 58.3294L117.242 58.5154L118.874 58.1274L119.424 57.4522L120.871 57.5745L122.899 58.5633L126.004 59.4192L127.842 59.8179L129.134 59.6797L130.58 60.6259L129.002 61.5882L128.901 61.8061L129.065 61.9762L131.465 62.4653L135.104 62.1995L136.164 61.8327L137.483 63.1033L137.763 63.1139L139.204 61.9656L139.194 61.6254L138.049 60.8067L138.659 60.2432L141.217 59.9189L142.192 60.4239L143.506 61.652L145.1 61.5297L147.51 62.5504L149.55 62.1942L151.462 62.2474L151.679 62.0135L151.547 60.7588L152.495 60.4346L154.344 61.1363L154.338 63.1405L154.503 63.3478L154.741 63.2308L155.525 61.5509L156.447 61.6041L156.664 61.4446L157.262 59.1215L155.79 57.4682L154.307 56.5431L154.407 54.0765L155.843 52.4444L157.421 52.8006L158.698 53.8372L160.388 56.389L159.334 57.4363L159.445 57.7978L161.739 58.2443L161.733 60.4505L161.866 60.6472L162.099 60.5994L163.725 58.9248L165.071 60.1953L164.747 61.9656L166.029 63.4967H166.353L167.735 61.8593L168.731 59.8285L168.821 57.3937L172.381 57.8934L174.039 58.9779L174.108 59.9455L173.175 61.1097L173.17 61.3702L174.049 62.5185L173.912 63.4275L171.433 64.9161L169.695 65.2403L168.387 64.6024L168.095 64.7247L167.709 65.8092L166.448 67.6326L166.056 68.5736L164.604 69.9398L162.782 70.0727L161.611 71.019L161.463 72.364L159.969 72.6564L158.317 74.3682L156.876 76.6594L156.33 78.3446L156.256 80.6359L156.431 80.8538L158.253 81.1569L159.44 84.32L159.678 84.4422L161.479 84.0754L163.873 84.8782L165.161 85.5746L166.172 86.4943L167.815 87.0046L169.202 87.7808L172.699 88.0678L172.513 89.5245L172.942 91.4011L173.901 93.4106L175.93 95.1649L176.168 95.1862L177.281 94.5057L178.006 92.544L177.312 89.684L176.544 88.844L178.435 88.0625L179.94 86.7548L180.745 85.2662L180.613 83.9106L179.712 82.2786L178.202 80.8911L179.686 78.7912L179.114 76.9996L178.695 73.9854L179.415 73.6133L182.996 74.3628L184.119 73.8525L186.832 75.6387L187.388 76.4946L189.549 76.6328L189.517 78.1586L189.957 80.6572L190.116 80.8273L191.26 81.1143L192.176 82.2095L192.441 82.2573L194.364 81.1781L195.699 78.9507L196.367 78.2489L200.392 84.4795L199.905 85.5639L199.99 85.8351L201.738 86.8824L202.914 87.9349L205.086 88.4559L205.843 88.9822L206.347 90.4654L207.459 90.8269L207.904 91.4011L207.994 93.2351L206.209 94.4366L203.973 95.0958L202.352 96.4939L200.202 96.7651L197.368 96.3982L193.983 96.5046L192.764 97.7858L191.038 98.5885L187.61 102.39L187.578 102.645L187.812 102.746L188.94 102.469L191.149 100.215L193.861 98.8224L195.726 98.6629L196.621 99.3062L195.498 100.481L195.927 102.326L196.467 103.713L198.305 104.564L200.498 104.325L201.637 102.836L201.775 103.623L202.379 104.048L201.023 104.947L198.109 105.914L196.764 106.589L195.312 107.732L194.571 107.647L194.534 106.579L196.727 105.282L196.822 105.042L196.616 104.888L193.103 105.127L192.367 104.335L192.293 101.98L191.705 101.496L190.741 101.704L190.391 101.353L190.073 101.369L189.062 102.639L188.627 103.979L188.204 104.654L187.319 104.952L187.075 105.356L182.673 105.393L182.032 105.723L180.787 106.77L180.411 106.696L179.686 107.206L179.092 106.951L176.581 107.621L176.105 108.243L176.216 108.572L177.132 108.732L176.174 108.896L175.194 109.327L174.076 109.258L172.513 110.204L172.148 110.156L172.884 109.04L173.8 108.397L173.853 107.179L174.468 106.121L174.727 106.403L175.803 106.626L176.438 106.01L176.449 105.76L175.04 103.894L173.832 103.57L170.845 103.192L170.633 102.889L170.214 102.958L170.32 102.74L170.204 102.448L169.843 102.31L169.944 101.64L169.531 101.252L169.695 100.912L169.541 100.609L168.164 100.375L167.767 99.5082L167.269 99.1573L164.986 98.8118L164.387 99.4444L163.603 99.758L163.153 100.322L161.654 99.9175L160.547 100.125L159.281 99.6092L157.035 99.2371L156.733 99.0244L156.516 98.1579L156.304 97.9984L155.853 98.009L155.647 98.2217L155.642 98.6735L119.022 98.6682L115.573 96.2653L113.19 95.5317L112.522 94.1176L112.697 93.0916L112.575 92.863L110.981 92.1453L110.689 90.6728L109.158 89.4075L109.137 88.6367L109.874 87.6638L109.725 86.3082L107.522 85.1387L105.366 81.63L103.236 79.9182L102.547 78.9188L102.283 78.8497L100.953 79.4929L99.7717 80.487L97.7323 78.4244L96.4398 77.8715L95.2638 77.8024L95.2797 57.8722L95.2585 57.835ZM196.992 97.4349L198.602 97.8389L199.799 98.4768L197.797 97.9718L196.986 97.4349H196.992ZM191.181 20.4359L194.719 20.6964L197.537 21.1164L199.794 21.951L199.757 22.5358L196.658 23.8808L193.469 24.524L192.203 25.263L192.108 25.5022L192.314 25.6564L194.438 25.6457L191.975 27.1449L189.75 28.0699L187.531 30.51L184.866 30.9991L183.982 31.6104L180.025 31.9241L179.829 32.1208L179.998 32.3441L181.275 32.6046L180.846 32.8544L180.782 33.1681L181.752 34.4493L180.682 35.2945L178.663 36.0973L177.964 37.2456L176.174 38.0589L176.057 38.3141L176.242 38.9467L176.454 39.1009L178.51 39.0052L178.526 39.3295L175.172 40.8977L171.777 40.1535L167.841 40.5735L165.87 40.2439L163.54 40.111L163.418 39.1381L165.69 38.548L165.839 38.2769L165.256 36.4428L165.786 36.3099L169.271 37.522L169.52 37.4369L169.494 37.1764L167.687 35.3424L165.791 34.8214L166.575 33.9974L168.874 33.3116L169.388 32.1474L169.303 31.8922L167.491 30.7599L167.062 29.5584L170.347 29.6754L171.533 29.9837L173.604 28.8673L173.71 28.6387L173.525 28.4686L170.537 28.1124L165.913 28.3038L163.656 27.2937L162.533 26.0179L161.061 25.1354L160.843 24.3273L162.597 23.7798L164.149 23.6735L166.75 23.1472L168.71 21.9404L170.23 22.0999L171.618 22.9877L171.915 22.9132L172.879 21.2121L174.537 20.7124L176.889 20.3455L180.877 20.2073L181.661 20.5635L185.47 20L191.191 20.42L191.181 20.4359ZM167.052 48.9995L167.057 49.2228L168.101 50.8017L168.461 50.7911L169.647 48.8135L172.799 47.8247L174.923 50.2914L174.738 51.8384L175.003 52.067L177.625 51.344L178.854 50.3871L181.667 51.5991L183.399 52.7208L183.558 53.699L183.812 53.8744L186.154 53.3481L187.552 54.8739L190.714 55.8148L191.806 56.7292L192.923 58.7015L190.704 59.6903L190.699 60.0784L193.824 61.5828L195.911 62.0826L197.913 64.1824L199.746 64.3153L199.412 65.5753L197.235 67.9516L195.773 67.1223L193.707 65.0277L191.806 65.2457L191.631 65.4264L191.53 66.8724L192.923 68.1376L194.735 69.1424L195.233 69.6581L196.054 71.6516L195.683 72.869L194.232 72.3799L190.921 70.7053L190.651 70.7744L190.677 71.0509L193.893 74.0758L193.988 74.3894L190.762 73.6505L187.949 72.4597L186.556 71.5772L186.874 71.1678L186.81 70.8489L182.896 68.7171L182.583 68.9138L182.599 69.3338L179.034 69.6527L178.139 69.068L178.859 67.7602L181.248 67.723L183.976 67.4465L184.141 67.1276L183.749 66.4365L184.162 65.4583L185.862 63.3053L185.507 62.056L184.919 61.2054L182.885 60.089L180.581 59.4085L181.063 59.0736L181.095 58.7493L179.691 57.2874L178.451 57.096L177.45 56.3199L177.169 56.3358L176.513 56.9897L174.203 57.2821L169.414 56.7558L164.509 55.7032L163.662 55.0546L164.838 54.1137L164.906 53.8798L164.705 53.7362L162.999 53.7256L162.618 51.4662L163.587 49.3185L164.869 48.335L167.783 47.7502L167.046 48.9995H167.052ZM197.426 103.113L198.523 103.437L199.285 103.416L198.676 103.75L197.119 103.097L196.907 102.735L197.098 102.538L197.421 103.107L197.426 103.113ZM181.344 63.2734L180.088 63.3691L179.829 62.5025L180.321 61.3915L181.349 61.1203L182.207 61.6466L182.218 62.4547L181.338 63.2734H181.344ZM180.602 49.377L180.66 49.7225L178.081 49.6109L176.64 49.9405L174.998 48.5742L175.04 47.9044L175.496 47.7821L178.446 48.0533L180.607 49.3823L180.602 49.377ZM176.666 74.2406L176.285 75.0327L175.951 74.9317L175.697 74.4851L176.126 73.9588L176.47 73.9854L176.666 74.2299V74.2406ZM156.399 38.7819L157.935 39.6857L160.473 39.6803L161.447 40.4565L161.188 41.3496L161.31 41.6048L162.803 42.2108L163.736 42.8807L167.449 43.2262L169.621 42.6414L172.285 42.4128L174.367 42.5989L175.681 43.5399L175.925 44.4436L175.236 45.0284L173.35 45.5653L171.639 45.2517L167.841 45.6557L165.145 45.7035L163.031 45.3846L159.63 44.5659L159.212 43.2315L159.053 41.9078L157.654 40.5788L154.836 40.196L153.501 39.4518L153.862 38.6171L156.394 38.7819H156.399ZM168.922 66.9734L169.134 67.8027L169.43 67.9409L169.992 67.6645L170.691 68.1749L173.562 69.5411L173.668 70.4342L173.912 70.6203L174.802 70.4714L175.411 70.9233L174.59 71.3858L172.677 70.918L171.978 70.0196L171.676 69.9877L170.378 71.104L168.726 72.0556L168.355 71.0615L168.132 70.9233L166.988 71.0509L167.724 70.3119L167.894 68.6427L168.297 66.8618L168.922 66.9787V66.9734ZM173.218 72.9541L171.803 73.9907L171.062 73.9535L170.903 73.6452L171.713 72.8584L173.218 72.9541ZM166.443 31.233L167.783 32.0783L166.262 32.8225L163.863 34.9756L161.611 35.1776L158.947 34.8161L157.649 33.7316L157.665 32.8704L158.629 32.1421L158.703 31.9028L158.502 31.7593L156.145 31.7806L154.773 30.8449L154.026 29.6275L154.858 28.3942L155.716 27.5117L157.008 27.3044L157.141 26.9588L156.823 26.5654L159.397 26.4325L161.114 28.0858L165.436 29.3086L166.443 31.2277V31.233ZM158.375 49.882L156.913 51.7374L155.652 51.6576L154.889 49.6162L154.911 48.4467L155.541 47.4472L156.759 46.7933L159.445 46.8837L161.622 47.426L159.906 49.4036L158.38 49.8767L158.375 49.882ZM157.633 44.3479L157.061 45.1613L155.292 44.9805L153.936 44.3958L154.481 43.4654L156.203 42.8116L157.236 43.6515L157.633 44.3426V44.3479ZM157.443 37.1871L154.635 37.0808L154.466 36.7033L156.749 36.7405L157.437 37.1871H157.443ZM154.778 35.6773L153.009 36.2089L152.061 35.6241L151.541 34.63L151.462 33.7103L153.634 33.9921L155.048 34.8958L154.778 35.6773ZM154.895 58.9779L154.312 59.5521L152.654 58.8982L151.531 59.1268L150.095 58.2922L151.006 57.7127L151.828 56.7983L153.846 57.8084L154.895 58.9779ZM148.983 47.5801L150.551 48.0958L152.76 47.7928L152.977 48.2606L151.843 49.3823L151.891 49.7225L153.772 50.7432L153.56 52.7208L151.552 53.598L150.403 53.4119L149.491 52.4869L146.303 50.6263L146.318 50.1744L148.798 50.4615L149.009 50.3498L148.983 50.1106L147.669 48.6168L148.972 47.5801H148.983ZM151.478 40.0684L152.204 40.9881L152.241 42.2853L151.684 44.1193L149.677 44.3692L148.448 44.0024L148.474 42.5989L148.241 42.3809L146.292 42.567L146.228 40.919L147.526 40.9722L149.47 40.0525L151.277 40.2066L151.473 40.0684H151.478ZM149.147 35.1829L149.502 36.0122L147.738 35.7517L145.503 34.8108L143.198 34.7257L143.94 34.226L143.908 33.8539L142.42 33.2L142.356 32.461L144.682 32.8225L148.188 33.8751L149.147 35.1882V35.1829ZM130.316 49.3132L129.775 50.2807L130.014 50.5891L132.874 49.8501L134.638 51.0675L134.898 51.0516L136.275 49.8661L137.303 50.5678L138.362 52.9601L138.733 52.992L139.421 51.7746L138.558 49.4036L139.453 49.1165L140.677 49.4939L142.081 50.4562L143.4 54.6665L147.892 56.9365L147.791 57.6542L145.783 57.8297L145.646 58.1858L146.387 58.9779L146.08 59.5627L143.839 59.2225L141.493 58.5899L139.903 58.7387L137.435 59.5202L131.862 60.0731L131.105 58.9992L129.293 58.3613L128.122 58.5899L126.793 57.0694L129.357 56.5112L131.264 56.6123L132.996 56.1976L133.16 55.9903L132.996 55.7829L130.432 55.2194L125.776 55.363L125.326 54.7941L128.112 53.9117L128.255 53.6724L128.043 53.4917L126.03 53.5236L124.012 52.9601L124.971 51.3599L125.85 50.4083L129.283 48.9145L130.326 49.2919L130.316 49.3132ZM143.135 48.5051L142.234 49.8023L140.539 48.3403L140.735 48.1809L142.383 48.0852L143.135 48.5051ZM138.32 41.1263L138.855 42.1311L139.119 42.2268L140.253 41.7909L141.434 41.8919L141.625 42.9764L140.921 44.0874L136.534 44.4915L133.171 45.6344L131.364 45.6876L131.264 45.1772L133.859 44.0715L133.981 43.8269L133.764 43.6621L127.805 43.9758L126.274 43.5824L127.884 41.222L129.018 40.5203L132.625 41.4187L135.051 43.0455L137.366 43.2528L137.557 42.9179L135.777 40.4725L136.757 39.6591L137.912 39.9302L138.32 41.1317V41.1263ZM135.75 36.7033L133.441 37.4688L131.852 36.7246L132.625 36.0654L134.463 35.7889L136.031 36.1664L135.756 36.7033H135.75ZM135.946 34.2685L134.94 34.6194H132.996L134.198 33.7635L135.946 34.2685ZM122.062 53.3854L118.868 54.4592L118.164 53.4492L115.314 52.2371L116.686 49.5524L117.83 47.8832L117.819 47.628L116.776 46.3468L120.823 45.9747L122.73 46.5169L126.067 46.6604L128.409 48.2287L127.068 48.7497L123.763 50.5731L122.121 52.3168L122.062 53.3854ZM127.688 37.2987L127.54 39.0903L126.629 39.9515L125.394 40.1003L122.952 41.2646L120.908 41.6686L119.509 41.2061L121.48 39.3986L124.134 37.623L126.104 37.6602L127.693 37.304L127.688 37.2987ZM117.915 99.5826L117.56 99.7102L115.52 98.9819L115.081 98.3599L113.958 97.7911L113.608 97.2488L112.337 96.9564L111.945 96.0474L115.134 96.8182L116.193 98.1738L117.528 98.9128L117.915 99.5879V99.5826ZM105.577 89.987L106.049 90.1411L107.034 90.0295L106.69 91.8051L107.585 93.0438L106.891 92.3367L106.367 91.4755L105.747 90.9545L105.572 89.987H105.577Z" fill="#E4EBFA"/>
<path fill-rule="evenodd" clip-rule="evenodd" d="M155.99 98.1362L156.187 98.9172L156.782 99.3688L159.03 99.7407L160.301 100.261L161.454 100.059L162.437 100.325L161.614 100.67L159.759 102.057L159.674 102.466L159.939 102.673L161.178 102.349L162.118 102.891L164.856 101.616L164.691 101.961L164.824 102.259L165.547 102.461L166.456 103.077L168.954 102.61L169.31 103.061L170.006 103.173L170.314 103.481L169.602 103.571L168.443 103.401L166.53 103.874L165.09 105.601L165.276 106.079H165.589L165.882 105.76L165.159 108.23L165.313 109.872L165.669 110.711L165.993 110.95L166.934 110.717L167.784 109.675L167.859 108.501L167.423 107.46L167.481 106.86L168.114 105.601L168.348 105.425L168.603 105.824L168.816 105.67L169.028 104.942L169.347 104.692L169.475 104.267L170.373 104.527L171.25 105.101L171.234 106.36L170.559 106.961V107.561L171.021 107.752L171.904 107.067L172.169 107.157L172.435 108.538L171.112 110.531L171.202 110.855L172.021 111.184L172.807 111.275L173.828 111.041L176.336 109.899L177.484 108.942L177.458 108.283L177.856 108.167L179.94 108.358L181.067 107.8L181.178 107.588L181.03 106.801L182.768 105.526L187.19 105.516L187.487 105.08L188.497 104.671L188.992 103.869L189.385 102.61L190.225 101.558L190.714 101.887L191.495 101.637L191.92 101.988V104.161L192.962 105.542L191.718 106.238L188.864 107.348L187.891 108.794L187.902 109.744L188.343 110.589L188.63 110.711L185.34 111.211L184.171 111.684L184.049 111.939L184.288 112.093L185.877 111.848L184.713 112.146H184.112L184.033 111.976L183.778 112.018L183.374 112.454L183.491 112.81L183.661 112.842L183.443 113.702L182.768 114.542L181.981 113.973L181.721 113.952L181.636 114.197L181.912 115.036L182.236 115.349L182.252 115.769L181.747 116.502L181.104 115.854L180.961 114.648L180.774 114.462L180.551 114.595L180.296 115.27L180.472 116.019L179.956 115.875L179.701 116.003L179.797 116.268L180.604 116.709L180.658 118.048L181.077 118.319L181.354 120.136L180.599 121.135L179.286 121.56L178.377 122.442L177.681 122.575L177.006 123.122L176.778 123.648L175.348 124.593L173.945 126.203L173.705 127.329L173.945 128.435L174.396 129.699L174.976 130.708L174.997 131.346L175.614 132.972L175.518 134.401L175.226 135.16L174.976 135.272L174.503 135.15L174.242 134.523L173.78 134.225L172.318 131.484L172.573 130.591L172.191 129.646L171.122 128.381L170.527 128.1L169.081 128.727L168.3 128.01L167.465 127.648L165.876 127.813L164.723 127.654L163.66 127.755L163.049 127.999L162.948 128.307L163.155 128.642L163.229 129.354L162.783 129.247L162.336 129.492L161.497 129.455L160.391 128.69L159.28 128.865L158.265 128.535L156.282 128.982L155.012 130.081L153.662 130.73L152.891 131.479L152.567 132.212L152.748 134.183L152.594 134.194L150.733 133.487L150.069 131.835L149.304 131.038L148.113 129.146L147.178 128.567L145.971 128.562L145.062 129.662L144.127 129.295L143.51 128.902L142.702 127.319L140.614 125.64H138.307L138.094 125.853V126.246L134.639 126.256L129.845 124.588L129.664 124.211L126.635 124.471L126.406 123.786L125.545 122.931L124.939 122.729L124.647 122.261L123.967 122.192L123.43 121.783L122.25 121.64L122.021 121.48L121.83 120.641L120.554 119.137L119.486 117.092L119.454 116.614L117.902 114.882L117.727 113.665L117.036 112.783L117.312 111.524L117.264 110.159L116.85 108.937L117.355 107.439L117.679 104.421L117.429 102.153L116.653 99.9851L118.349 100.405L119.018 101.908L119.385 101.951L119.752 101.345L119.167 98.8003H155.714L155.926 98.5878L156.001 98.1309L155.99 98.1362ZM75.8489 54.0674L76.7684 55.114L77.0607 55.1406L77.5869 54.7209L79.527 54.8484L79.4791 55.1778L79.6492 55.4169L81.6849 55.8259L83.0721 55.5975L85.8307 56.3413L88.4032 56.5697L89.4077 56.8725L91.2255 56.5006L94.489 57.4941L94.4731 77.7142L94.675 77.9267L95.9453 77.9852L97.1731 78.5058L99.246 80.6256L99.5384 80.6468L100.814 79.5684L101.962 79.0158L102.6 79.9243L104.699 81.5925L106.873 85.1148L109.106 86.3314L109.137 87.3036L108.595 87.9571L107.979 87.3833L106.894 86.8361L106.538 85.3008L104.795 83.691L103.918 81.7944L100.543 81.6244L99.044 81.0878L96.2483 79.0424L92.65 77.9586L90.7737 78.118L88.2172 77.2202L86.4898 76.3542L85.0122 76.7792L84.8633 77.0236L85.0972 78.1977L83.019 78.7077L81.8178 79.3824L80.5953 79.7277L80.4518 78.8512L81.0099 77.0342L82.3333 76.4551L82.4184 76.1364L82.0516 75.6263L81.7593 75.5732L80.0638 76.6995L79.1177 78.0596L77.2308 79.4462L77.2096 79.7702L78.0387 80.5778L76.9385 81.7944L74.2225 83.1597L73.8132 84.0417L71.8147 84.982L71.3257 85.9011L69.896 86.6343L68.9339 86.5174L65.2399 88.2812L63.1298 88.7646L65.7077 87.4365L67.0843 86.4483L68.817 86.172L69.4495 85.4283L71.2673 84.3126L72.6439 83.1066L72.8671 81.6828L73.5209 80.5672L73.4996 80.3228L73.2604 80.2643L71.836 80.8115L71.5011 80.5512L71.2194 80.5672L70.6614 81.1197L69.9385 80.3015L69.5877 80.344L69.4176 80.6734L69.1093 80.0678L68.8117 79.9828L67.5308 80.7372H66.962L66.8717 79.8074L67.0311 78.899L66.1754 78.1924L64.3629 78.5058L63.3212 77.6399L62.4867 77.1936L62.407 76.0195L61.5034 75.2598L61.9393 74.261L62.997 73.1347L63.4647 72.1147L64.3736 71.9871L65.4579 72.2581L66.4518 71.3177L67.467 71.4506L68.4822 70.7971L68.5725 70.5687L68.3227 69.6017L67.754 69.2299L68.4928 68.6083L68.5566 68.3692L68.3493 68.2311L67.4723 68.2683L66.0585 68.7358L65.6598 69.1502L64.6393 68.7252L62.8003 68.9589L60.9719 68.4755L60.4085 67.6201L59 66.5629L60.5467 65.8032L63.47 64.7406H64.2779L64.1397 65.6013L64.3576 65.8457L67.1693 65.7607L67.3288 65.4153L66.2498 64.0394L64.5809 63.1468L63.6295 62.0205L62.3538 61.0483L60.7115 60.3895L61.2642 59.4917L63.5125 59.4173L65.2984 58.3176L65.6864 57.1116L66.9567 56.0544L68.243 55.7781L70.7145 54.7315L72.022 54.8537L73.9939 53.6052L75.8542 54.0781L75.8489 54.0674ZM78.5915 83.7601L77.3956 84.4135L76.8907 84.047L76.7365 83.3882L78.4427 82.5222L79.1974 82.6338L79.5535 83.0057L78.5968 83.7601H78.5915ZM61.7373 78.3677L61.1632 78.5855L59.9886 77.9905L60.8018 77.778L61.6629 77.9267L61.7373 78.3677Z" fill="#D0D9ED"/>
</g>
</svg>
