<svg height="707" width="2500" xmlns="http://www.w3.org/2000/svg" viewBox="0 0 391.366 110.656"><g stroke-miterlimit="10"><path d="M58.347 103.93c-5.808 1.019-11.719 1.325-17.833 2.14L21.865 51.45v56.963c-5.808.612-11.107 1.427-16.61 2.242V6.307h15.49l21.196 59.206V6.307h16.406zm32.1-59.41c6.318 0 15.998-.306 21.807-.306v16.304c-7.236 0-15.693 0-21.808.306v24.254c9.58-.612 19.158-1.428 28.839-1.733v15.692l-45.144 3.567V6.307h45.144V22.61H90.446zm89.47-21.908H163v75c-5.503 0-11.006 0-16.304.203V22.612h-16.915V6.307h50.135zM206.41 43.4h22.317v16.304h-22.317v36.99h-16V6.308h45.552V22.61h-29.552zm56.047 39.028c9.273.203 18.648.918 27.717 1.426v16.101c-14.571-.918-29.144-1.833-44.021-2.14V6.307h16.304zm41.474 18.648c5.197.306 10.7.612 15.999 1.223V6.307h-15.999zm87.433-94.77L370.68 55.934l20.686 54.722c-6.115-.815-12.229-1.936-18.343-2.955l-11.718-30.163-11.922 27.718c-5.911-1.02-11.618-1.326-17.527-2.141l20.992-47.793-18.955-49.014h17.527l10.7 27.412 11.413-27.412z" fill="#666"/><path d="M53.091 97.622c-5.808 1.02-11.718 1.326-17.832 2.14l-18.65-54.619v56.964c-5.807.611-11.106 1.426-16.609 2.241V0h15.49l21.195 59.206V0H53.09zm32.1-59.408c6.318 0 15.999-.306 21.807-.306v16.304c-7.235 0-15.693 0-21.807.306V78.77c9.579-.611 19.158-1.427 28.838-1.733V92.73l-45.143 3.567V0h45.143v16.304H85.191zm89.47-21.91h-16.916v75.001c-5.502 0-11.005 0-16.303.203V16.305h-16.916V0h50.136zm26.495 20.789h22.317v16.304h-22.317v36.991h-16V0h45.552v16.304h-29.552zm56.046 39.028c9.274.204 18.648.918 27.718 1.427v16.1c-14.572-.917-29.144-1.833-44.022-2.14V0h16.304zm41.475 18.649c5.197.306 10.7.612 15.998 1.222V0h-15.998zM386.11 0l-20.687 49.627 20.687 54.721c-6.115-.815-12.23-1.936-18.344-2.955L356.048 71.23l-11.921 27.718c-5.912-1.02-11.618-1.326-17.528-2.14l20.992-47.793L328.637 0h17.526l10.7 27.412L368.277 0z" fill="#d81f26"/></g></svg>